<svg width="149" height="31" viewBox="0 0 149 31" fill="none" xmlns="http://www.w3.org/2000/svg">
<path d="M11.0701 31H0.236162C0.0787208 31 0 30.9275 0 30.7825L0.118081 0.174035C0.118081 0.0580117 0.196802 0 0.354244 0H11.9852C14.2485 0 16.305 0.406082 18.155 1.21825C19.9656 2.03041 21.3924 3.11088 22.4354 4.45965C23.4785 5.79392 24 7.24421 24 8.81053C24 10.0868 23.6064 11.276 22.8192 12.3782C22.032 13.4805 21.0972 14.3724 20.0148 15.054C21.1759 15.9097 22.0812 16.9032 22.7306 18.0344C23.3801 19.1656 23.7048 20.3549 23.7048 21.6021C23.7048 23.328 23.1439 24.9015 22.0221 26.3228C20.8807 27.7441 19.3555 28.8826 17.4465 29.7382C15.5375 30.5794 13.4121 31 11.0701 31ZM11.9852 5.28632H7.38007V12.2912H11.9852C13.3825 12.2912 14.5141 11.9287 15.3801 11.2035C16.246 10.4639 16.679 9.6662 16.679 8.81053C16.679 7.86784 16.2165 7.04842 15.2915 6.35228C14.3665 5.64164 13.2645 5.28632 11.9852 5.28632ZM11.0701 17.6863H7.38007L7.32103 25.5614H11.0701C12.5264 25.5614 13.7761 25.1698 14.8192 24.3867C15.8622 23.6035 16.3838 22.6753 16.3838 21.6021C16.3838 20.5289 15.8622 19.608 14.8192 18.8393C13.7761 18.0706 12.5264 17.6863 11.0701 17.6863Z" fill="#0FAF65"/>
<path d="M38.7602 30.9566L49.7019 31C49.9006 31 50 30.9276 50 30.7828L49.8807 0.220586C49.8807 0.104738 49.8012 0.0468137 49.6422 0.0468137L38.2236 0.00337058C35.9578 -0.0400725 33.9106 0.336434 32.082 1.13289C30.2335 1.92935 28.7627 3.00818 27.6696 4.3694C26.5565 5.71613 26 7.20768 26 8.84404V21.6163C26 23.3251 26.5665 24.889 27.6994 26.3082C28.8522 27.7128 30.3826 28.8351 32.2907 29.675C34.1988 30.5004 36.3553 30.9276 38.7602 30.9566ZM38.2236 5.32515L42.487 5.36859L42.5466 25.5262H38.7602C37.2497 25.5262 35.9776 25.1424 34.9441 24.3749C33.9106 23.6074 33.3938 22.6879 33.3938 21.6163V8.80059C33.3938 7.85933 33.8708 7.04115 34.8248 6.34606C35.7789 5.63649 36.9118 5.29618 38.2236 5.32515Z" fill="white"/>
<path d="M59.0114 21.5V9.86364H63.6705C64.5265 9.86364 65.2405 9.99053 65.8125 10.2443C66.3845 10.4981 66.8144 10.8504 67.1023 11.3011C67.3902 11.7481 67.5341 12.2633 67.5341 12.8466C67.5341 13.3011 67.4432 13.7008 67.2614 14.0455C67.0795 14.3864 66.8295 14.6667 66.5114 14.8864C66.197 15.1023 65.8371 15.2557 65.4318 15.3466V15.4602C65.875 15.4792 66.2898 15.6042 66.6761 15.8352C67.0663 16.0663 67.3826 16.3902 67.625 16.8068C67.8674 17.2197 67.9886 17.7121 67.9886 18.2841C67.9886 18.9015 67.8352 19.4527 67.5284 19.9375C67.2254 20.4186 66.7765 20.7992 66.1818 21.0795C65.5871 21.3598 64.8542 21.5 63.983 21.5H59.0114ZM61.4716 19.4886H63.4773C64.1629 19.4886 64.6629 19.358 64.9773 19.0966C65.2917 18.8314 65.4489 18.4792 65.4489 18.0398C65.4489 17.7178 65.3712 17.4337 65.2159 17.1875C65.0606 16.9413 64.839 16.7481 64.5511 16.608C64.267 16.4678 63.928 16.3977 63.5341 16.3977H61.4716V19.4886ZM61.4716 14.733H63.2955C63.6326 14.733 63.9318 14.6742 64.1932 14.5568C64.4583 14.4356 64.6667 14.2652 64.8182 14.0455C64.9735 13.8258 65.0511 13.5625 65.0511 13.2557C65.0511 12.8352 64.9015 12.4962 64.6023 12.2386C64.3068 11.9811 63.8864 11.8523 63.3409 11.8523H61.4716V14.733ZM68.6295 21.5V9.86364H76.4704V11.892H71.0897V14.6648H76.067V16.6932H71.0897V19.4716H76.4931V21.5H68.6295ZM83.7789 13.2102C83.7334 12.7519 83.5383 12.3958 83.1936 12.142C82.8489 11.8883 82.3811 11.7614 81.7902 11.7614C81.3887 11.7614 81.0497 11.8182 80.7732 11.9318C80.4967 12.0417 80.2845 12.1951 80.1368 12.392C79.9929 12.589 79.9209 12.8125 79.9209 13.0625C79.9133 13.2708 79.9569 13.4527 80.0516 13.608C80.1501 13.7633 80.2845 13.8977 80.455 14.0114C80.6255 14.1212 80.8224 14.2178 81.0459 14.3011C81.2694 14.3807 81.508 14.4489 81.7618 14.5057L82.8073 14.7557C83.3148 14.8693 83.7808 15.0208 84.205 15.2102C84.6292 15.3996 84.9967 15.6326 85.3073 15.9091C85.6179 16.1856 85.8584 16.5114 86.0289 16.8864C86.2031 17.2614 86.2921 17.6913 86.2959 18.1761C86.2921 18.8883 86.1103 19.5057 85.7505 20.0284C85.3944 20.5473 84.8792 20.9508 84.205 21.2386C83.5345 21.5227 82.7258 21.6648 81.7789 21.6648C80.8395 21.6648 80.0213 21.5208 79.3243 21.233C78.6311 20.9451 78.0895 20.5189 77.6993 19.9545C77.313 19.3864 77.1103 18.6837 77.0914 17.8466H79.472C79.4986 18.2367 79.6103 18.5625 79.8073 18.8239C80.008 19.0814 80.2751 19.2765 80.6084 19.4091C80.9455 19.5379 81.3262 19.6023 81.7505 19.6023C82.1671 19.6023 82.5289 19.5417 82.8357 19.4205C83.1463 19.2992 83.3868 19.1307 83.5573 18.9148C83.7277 18.6989 83.813 18.4508 83.813 18.1705C83.813 17.9091 83.7353 17.6894 83.58 17.5114C83.4285 17.3333 83.205 17.1818 82.9095 17.0568C82.6179 16.9318 82.2599 16.8182 81.8357 16.7159L80.5686 16.3977C79.5876 16.1591 78.813 15.786 78.2448 15.2784C77.6766 14.7708 77.3944 14.0871 77.3982 13.2273C77.3944 12.5227 77.5819 11.9072 77.9607 11.3807C78.3433 10.8542 78.8679 10.4432 79.5345 10.1477C80.2012 9.85227 80.9588 9.70455 81.8073 9.70455C82.6709 9.70455 83.4247 9.85227 84.0686 10.1477C84.7164 10.4432 85.2202 10.8542 85.58 11.3807C85.9398 11.9072 86.1255 12.517 86.1368 13.2102H83.7789ZM86.5476 11.892V9.86364H96.1044V11.892H92.5419V21.5H90.1101V11.892H86.5476ZM103.586 21.5H99.4614V9.86364H103.62C104.791 9.86364 105.798 10.0966 106.643 10.5625C107.488 11.0246 108.138 11.6894 108.592 12.5568C109.05 13.4242 109.28 14.4621 109.28 15.6705C109.28 16.8826 109.05 17.9242 108.592 18.7955C108.138 19.6667 107.484 20.3352 106.632 20.8011C105.783 21.267 104.768 21.5 103.586 21.5ZM101.922 19.392H103.484C104.211 19.392 104.823 19.2633 105.319 19.0057C105.819 18.7443 106.194 18.3409 106.444 17.7955C106.698 17.2462 106.825 16.5379 106.825 15.6705C106.825 14.8106 106.698 14.108 106.444 13.5625C106.194 13.017 105.821 12.6155 105.325 12.358C104.829 12.1004 104.217 11.9716 103.49 11.9716H101.922V19.392ZM111.491 21.5H108.855L112.872 9.86364H116.043L120.054 21.5H117.418L114.503 12.5227H114.412L111.491 21.5ZM111.327 16.9261H117.554V18.8466H111.327V16.9261ZM120.494 21.5V9.86364H125.085C125.964 9.86364 126.714 10.0208 127.335 10.3352C127.96 10.6458 128.436 11.0871 128.762 11.6591C129.091 12.2273 129.256 12.8958 129.256 13.6648C129.256 14.4375 129.089 15.1023 128.756 15.6591C128.423 16.2121 127.94 16.6364 127.307 16.9318C126.678 17.2273 125.917 17.375 125.023 17.375H121.949V15.3977H124.625C125.095 15.3977 125.485 15.3333 125.796 15.2045C126.106 15.0758 126.337 14.8826 126.489 14.625C126.644 14.3674 126.722 14.0473 126.722 13.6648C126.722 13.2784 126.644 12.9527 126.489 12.6875C126.337 12.4223 126.104 12.2216 125.79 12.0852C125.479 11.9451 125.087 11.875 124.614 11.875H122.955V21.5H120.494ZM126.779 16.2045L129.671 21.5H126.955L124.125 16.2045H126.779Z" fill="white"/>
</svg>
